<svg aria-hidden="true" style="width:0;height:0;position:absolute;overflow:hidden" xmlns="http://www.w3.org/2000/svg"><defs><symbol id="icon-search-icon" viewBox="0 0 33 32"><path d="M13.353 0h.004v.002a13.31 13.31 0 0 1 9.439 3.912 13.31 13.31 0 0 1 3.907 9.43h.002v.02h-.002v.003c0 1.759-.34 3.438-.959 4.976l.032-.09v.002a13.33 13.33 0 0 1-1.51 2.795l.028-.042 7.818 7.029c.411.393.675.935.707 1.538v.006a2.293 2.293 0 0 1-.532 1.599l.003-.004-.003.004-.047.054-.009.009-.039.043-.004.006c-.393.41-.935.675-1.538.707h-.006a2.288 2.288 0 0 1-1.599-.532l.004.003-.004-.003-.055-.047-.008-.006-7.946-7.141c-.235.166-.475.323-.718.471-.267.168-.601.356-.942.53l-.076.035a13.29 13.29 0 0 1-5.949 1.395v.002h-.004v-.002a13.315 13.315 0 0 1-9.44-3.912A13.308 13.308 0 0 1 0 13.362h-.002v-.013H0a13.315 13.315 0 0 1 3.912-9.44 13.31 13.31 0 0 1 9.43-3.907V0h.009zm.004 2.994v.002h-.013v-.002c-2.854.002-5.442 1.162-7.315 3.034s-3.034 4.462-3.035 7.32h.002v.013h-.002c.002 2.854 1.161 5.441 3.034 7.314s4.462 3.034 7.32 3.035v-.002h.013v.002c2.854-.002 5.441-1.161 7.314-3.034s3.034-4.462 3.035-7.319h-.002v-.013h.002c-.002-2.854-1.162-5.442-3.034-7.315s-4.462-3.034-7.319-3.035z"/></symbol></defs></svg>