<svg aria-hidden="true" style="position: absolute; width: 0; height: 0; overflow: hidden;" version="1.1" xmlns="http://www.w3.org/2000/svg" xmlns:xlink="http://www.w3.org/1999/xlink">
<defs>
<symbol id="icon-search-icon" viewBox="0 0 33 32">
<path d="M13.353-0h0.004v0.002c3.686 0.001 7.024 1.496 9.439 3.912 2.411 2.412 3.905 5.747 3.907 9.43h0.002v0.020h-0.002c0 0.001 0 0.002 0 0.003 0 1.759-0.34 3.438-0.959 4.976l0.032-0.090v0.002c-0.421 1.052-0.918 1.959-1.51 2.795l0.028-0.042 7.818 7.029c0.411 0.393 0.675 0.935 0.707 1.538l0 0.006c0.002 0.037 0.003 0.080 0.003 0.124 0 0.561-0.201 1.075-0.535 1.475l0.003-0.004-0.003 0.004-0.047 0.054-0.009 0.009-0.039 0.043-0.004 0.006c-0.393 0.41-0.935 0.675-1.538 0.707l-0.006 0c-0.037 0.002-0.081 0.003-0.125 0.003-0.561 0-1.075-0.201-1.474-0.535l0.004 0.003-0.004-0.003-0.055-0.047-0.008-0.006-7.946-7.141c-0.235 0.166-0.475 0.323-0.718 0.471-0.267 0.168-0.601 0.356-0.942 0.53l-0.076 0.035c-1.789 0.893-3.812 1.395-5.949 1.395v0.002h-0.004v-0.002c-3.686-0.001-7.024-1.496-9.44-3.912-2.412-2.412-3.905-5.748-3.907-9.43h-0.002v-0.013h0.002c0.001-3.686 1.496-7.024 3.912-9.44 2.412-2.411 5.747-3.905 9.43-3.907v-0.002h0.009zM13.357 2.994v0.002h-0.013v-0.002c-2.854 0.002-5.442 1.162-7.315 3.034s-3.034 4.462-3.035 7.32h0.002v0.013h-0.002c0.002 2.854 1.161 5.441 3.034 7.314s4.462 3.034 7.32 3.035v-0.002h0.013v0.002c2.854-0.002 5.441-1.161 7.314-3.034s3.034-4.462 3.035-7.319h-0.002v-0.013h0.002c-0.002-2.854-1.162-5.442-3.034-7.315s-4.462-3.034-7.319-3.035z"></path>
</symbol>
</defs>
</svg>
